# xmcd
#
# Track frame offsets:
#	150
#	9509
#	54838
#	99282
#	155489
#	219409
#	246169
#	312751
#
# Disc length: 4499 seconds
#
# Revision: 1
# Processed by: cddbd v1.5.2PL0 Copyright (c) Steve Scherf et al.
# Submitted via: audiograbber 1.83.01
#
DISCID=58119108
DTITLE=Grateful Dead - 78-01-14 Bakersfield Memorial Auditorium, Bakersfield CA
DYEAR=1900
DGENRE=
TTITLE0=Tuning 2
TTITLE1=Samson and Delilah
TTITLE2=Candyman
TTITLE3=Estimated Prophet
TTITLE4=Eyes Of The World
TTITLE5=Space
TTITLE6=Not Fade Away
TTITLE7=One More Saturday Night
EXTD=
EXTT0=
EXTT1=
EXTT2=
EXTT3=
EXTT4=
EXTT5=
EXTT6=
EXTT7=
PLAYORDER=
